<svg id="visual" viewBox="0 0 600 900" width="600" height="900" xmlns="http://www.w3.org/2000/svg" xmlns:xlink="http://www.w3.org/1999/xlink" version="1.1"><rect x="0" y="0" width="600" height="900" fill="#fff"></rect><defs><linearGradient id="grad1_0" x1="0%" y1="0%" x2="100%" y2="100%"><stop offset="30%" stop-color="#2563eb" stop-opacity="1"></stop><stop offset="70%" stop-color="#2563eb" stop-opacity="1"></stop></linearGradient></defs><defs><linearGradient id="grad1_1" x1="0%" y1="0%" x2="100%" y2="100%"><stop offset="30%" stop-color="#2563eb" stop-opacity="1"></stop><stop offset="70%" stop-color="#8a93f3" stop-opacity="1"></stop></linearGradient></defs><defs><linearGradient id="grad1_2" x1="0%" y1="0%" x2="100%" y2="100%"><stop offset="30%" stop-color="#c8c8fa" stop-opacity="1"></stop><stop offset="70%" stop-color="#8a93f3" stop-opacity="1"></stop></linearGradient></defs><defs><linearGradient id="grad1_3" x1="0%" y1="0%" x2="100%" y2="100%"><stop offset="30%" stop-color="#c8c8fa" stop-opacity="1"></stop><stop offset="70%" stop-color="#ffffff" stop-opacity="1"></stop></linearGradient></defs><defs><linearGradient id="grad2_0" x1="0%" y1="0%" x2="100%" y2="100%"><stop offset="30%" stop-color="#2563eb" stop-opacity="1"></stop><stop offset="70%" stop-color="#2563eb" stop-opacity="1"></stop></linearGradient></defs><defs><linearGradient id="grad2_1" x1="0%" y1="0%" x2="100%" y2="100%"><stop offset="30%" stop-color="#8a93f3" stop-opacity="1"></stop><stop offset="70%" stop-color="#2563eb" stop-opacity="1"></stop></linearGradient></defs><defs><linearGradient id="grad2_2" x1="0%" y1="0%" x2="100%" y2="100%"><stop offset="30%" stop-color="#8a93f3" stop-opacity="1"></stop><stop offset="70%" stop-color="#c8c8fa" stop-opacity="1"></stop></linearGradient></defs><defs><linearGradient id="grad2_3" x1="0%" y1="0%" x2="100%" y2="100%"><stop offset="30%" stop-color="#ffffff" stop-opacity="1"></stop><stop offset="70%" stop-color="#c8c8fa" stop-opacity="1"></stop></linearGradient></defs><g transform="translate(600, 0)"><path d="M0 378.6C-41 371.1 -82 363.7 -110 338.6C-138 313.4 -153 270.6 -179.9 247.6C-206.7 224.5 -245.5 221.2 -279.9 203.4C-314.3 185.6 -344.3 153.3 -360.1 117C-375.8 80.7 -377.2 40.3 -378.6 0L0 0Z" fill="#e4e3fd"></path><path d="M0 283.9C-30.8 278.4 -61.5 272.8 -82.5 253.9C-103.5 235.1 -114.7 203 -134.9 185.7C-155.1 168.4 -184.1 165.9 -209.9 152.5C-235.7 139.2 -258.3 115 -270 87.7C-281.8 60.5 -282.9 30.3 -283.9 0L0 0Z" fill="#aaadf7"></path><path d="M0 189.3C-20.5 185.6 -41 181.9 -55 169.3C-69 156.7 -76.5 135.3 -89.9 123.8C-103.4 112.2 -122.8 110.6 -140 101.7C-157.2 92.8 -172.2 76.6 -180 58.5C-187.9 40.3 -188.6 20.2 -189.3 0L0 0Z" fill="#637bef"></path><path d="M0 94.6C-10.3 92.8 -20.5 90.9 -27.5 84.6C-34.5 78.4 -38.2 67.7 -45 61.9C-51.7 56.1 -61.4 55.3 -70 50.8C-78.6 46.4 -86.1 38.3 -90 29.2C-93.9 20.2 -94.3 10.1 -94.6 0L0 0Z" fill="#2563eb"></path></g><g transform="translate(0, 900)"><path d="M0 -378.6C42.3 -378.5 84.6 -378.4 117 -360.1C149.4 -341.8 172 -305.3 202.8 -279.1C233.6 -253 272.7 -237.1 284.8 -206.9C296.8 -176.7 281.8 -132.1 292.9 -95.2C304 -58.3 341.3 -29.1 378.6 0L0 0Z" fill="#e4e3fd"></path><path d="M0 -283.9C31.7 -283.9 63.4 -283.8 87.7 -270C112.1 -256.3 129 -229 152.1 -209.3C175.2 -189.7 204.5 -177.8 213.6 -155.2C222.6 -132.5 211.4 -99 219.7 -71.4C228 -43.7 256 -21.9 283.9 0L0 0Z" fill="#aaadf7"></path><path d="M0 -189.3C21.1 -189.2 42.3 -189.2 58.5 -180C74.7 -170.9 86 -152.6 101.4 -139.6C116.8 -126.5 136.4 -118.6 142.4 -103.5C148.4 -88.3 140.9 -66 146.5 -47.6C152 -29.1 170.7 -14.6 189.3 0L0 0Z" fill="#637bef"></path><path d="M0 -94.6C10.6 -94.6 21.1 -94.6 29.2 -90C37.4 -85.4 43 -76.3 50.7 -69.8C58.4 -63.2 68.2 -59.3 71.2 -51.7C74.2 -44.2 70.5 -33 73.2 -23.8C76 -14.6 85.3 -7.3 94.6 0L0 0Z" fill="#2563eb"></path></g></svg>