<svg id="visual" viewBox="0 0 960 540" width="960" height="540" xmlns="http://www.w3.org/2000/svg" xmlns:xlink="http://www.w3.org/1999/xlink" version="1.1"><rect x="0" y="0" width="960" height="540" fill="#fff"></rect><defs><linearGradient id="grad1_0" x1="43.8%" y1="0%" x2="100%" y2="100%"><stop offset="14.444444444444446%" stop-color="#2563eb" stop-opacity="1"></stop><stop offset="85.55555555555554%" stop-color="#2563eb" stop-opacity="1"></stop></linearGradient></defs><defs><linearGradient id="grad1_1" x1="43.8%" y1="0%" x2="100%" y2="100%"><stop offset="14.444444444444446%" stop-color="#2563eb" stop-opacity="1"></stop><stop offset="85.55555555555554%" stop-color="#8a93f3" stop-opacity="1"></stop></linearGradient></defs><defs><linearGradient id="grad1_2" x1="43.8%" y1="0%" x2="100%" y2="100%"><stop offset="14.444444444444446%" stop-color="#c8c8fa" stop-opacity="1"></stop><stop offset="85.55555555555554%" stop-color="#8a93f3" stop-opacity="1"></stop></linearGradient></defs><defs><linearGradient id="grad1_3" x1="43.8%" y1="0%" x2="100%" y2="100%"><stop offset="14.444444444444446%" stop-color="#c8c8fa" stop-opacity="1"></stop><stop offset="85.55555555555554%" stop-color="#ffffff" stop-opacity="1"></stop></linearGradient></defs><defs><linearGradient id="grad2_0" x1="0%" y1="0%" x2="56.3%" y2="100%"><stop offset="14.444444444444446%" stop-color="#2563eb" stop-opacity="1"></stop><stop offset="85.55555555555554%" stop-color="#2563eb" stop-opacity="1"></stop></linearGradient></defs><defs><linearGradient id="grad2_1" x1="0%" y1="0%" x2="56.3%" y2="100%"><stop offset="14.444444444444446%" stop-color="#8a93f3" stop-opacity="1"></stop><stop offset="85.55555555555554%" stop-color="#2563eb" stop-opacity="1"></stop></linearGradient></defs><defs><linearGradient id="grad2_2" x1="0%" y1="0%" x2="56.3%" y2="100%"><stop offset="14.444444444444446%" stop-color="#8a93f3" stop-opacity="1"></stop><stop offset="85.55555555555554%" stop-color="#c8c8fa" stop-opacity="1"></stop></linearGradient></defs><defs><linearGradient id="grad2_3" x1="0%" y1="0%" x2="56.3%" y2="100%"><stop offset="14.444444444444446%" stop-color="#ffffff" stop-opacity="1"></stop><stop offset="85.55555555555554%" stop-color="#c8c8fa" stop-opacity="1"></stop></linearGradient></defs><g transform="translate(960, 0)"><path d="M0 378C-30.2 343.1 -60.3 308.2 -96.7 297.7C-133.1 287.1 -175.7 300.9 -212.8 292.9C-249.8 284.8 -281.3 254.9 -305.8 222.2C-330.3 189.5 -347.7 154 -358.5 116.5C-369.4 79 -373.7 39.5 -378 0L0 0Z" fill="#e4e3fd"></path><path d="M0 283.5C-22.6 257.3 -45.3 231.2 -72.5 223.3C-99.8 215.4 -131.8 225.7 -159.6 219.6C-187.4 213.6 -211 191.2 -229.4 166.6C-247.7 142.1 -260.8 115.5 -268.9 87.4C-277.1 59.3 -280.3 29.6 -283.5 0L0 0Z" fill="#aaadf7"></path><path d="M0 189C-15.1 171.6 -30.2 154.1 -48.4 148.8C-66.6 143.6 -87.9 150.5 -106.4 146.4C-124.9 142.4 -140.7 127.4 -152.9 111.1C-165.1 94.7 -173.8 77 -179.3 58.2C-184.7 39.5 -186.9 19.8 -189 0L0 0Z" fill="#637bef"></path><path d="M0 94.5C-7.5 85.8 -15.1 77.1 -24.2 74.4C-33.3 71.8 -43.9 75.2 -53.2 73.2C-62.5 71.2 -70.3 63.7 -76.5 55.5C-82.6 47.4 -86.9 38.5 -89.6 29.1C-92.4 19.8 -93.4 9.9 -94.5 0L0 0Z" fill="#2563eb"></path></g><g transform="translate(0, 540)"><path d="M0 -378C39.4 -374.8 78.9 -371.6 116.8 -359.5C154.7 -347.4 191.1 -326.3 214.5 -295.3C237.9 -264.3 248.4 -223.5 262.1 -190.4C275.9 -157.4 293 -132.1 312.9 -101.7C332.8 -71.2 355.4 -35.6 378 0L0 0Z" fill="#e4e3fd"></path><path d="M0 -283.5C29.6 -281.1 59.2 -278.7 87.6 -269.6C116 -260.5 143.4 -244.7 160.9 -221.5C178.5 -198.2 186.3 -167.6 196.6 -142.8C206.9 -118 219.8 -99.1 234.7 -76.2C249.6 -53.4 266.5 -26.7 283.5 0L0 0Z" fill="#aaadf7"></path><path d="M0 -189C19.7 -187.4 39.4 -185.8 58.4 -179.7C77.4 -173.7 95.6 -163.1 107.3 -147.6C119 -132.2 124.2 -111.7 131.1 -95.2C137.9 -78.7 146.5 -66.1 156.4 -50.8C166.4 -35.6 177.7 -17.8 189 0L0 0Z" fill="#637bef"></path><path d="M0 -94.5C9.9 -93.7 19.7 -92.9 29.2 -89.9C38.7 -86.8 47.8 -81.6 53.6 -73.8C59.5 -66.1 62.1 -55.9 65.5 -47.6C69 -39.3 73.3 -33 78.2 -25.4C83.2 -17.8 88.8 -8.9 94.5 0L0 0Z" fill="#2563eb"></path></g></svg>